<svg width="25" height="25" viewBox="0 0 50 50" fill="none" xmlns="http://www.w3.org/2000/svg">
<path d="M50 25C50 38.8071 38.8071 50 25 50C11.1929 50 0 38.8071 0 25C0 11.1929 11.1929 0 25 0C38.8071 0 50 11.1929 50 25Z" fill="#D9D9D9"/>
<path d="M33 17C33 21.4183 29.4183 25 25 25C20.5817 25 17 21.4183 17 17C17 12.5817 20.5817 9 25 9C29.4183 9 33 12.5817 33 17Z" fill="#0a51cc"/>
<path d="M22.3112 27.4333C23.4127 25.2074 26.5873 25.2074 27.6888 27.4333L35.8473 43.9194C36.834 45.9134 35.3833 48.25 33.1585 48.25H16.8415C14.6167 48.25 13.166 45.9134 14.1527 43.9194L22.3112 27.4333Z" fill="#0a51cc"/>
</svg>
